<svg width="16" height="16" viewBox="0 0 16 16" fill="none" xmlns="http://www.w3.org/2000/svg">
<path d="M14.625 0H1.375C0.615608 0 0 0.615608 0 1.375V14.625C0 15.3844 0.615608 16 1.375 16H14.625C15.3844 16 16 15.3844 16 14.625V1.375C16 0.615608 15.3844 0 14.625 0Z" fill="#002071"/>
<path d="M7.38106 11.8248V4.26363L5.54225 4.52188L4.13606 7.24694L2.79975 4.84631L1.254 5.09063V11.0502L2.709 11.2979V7.52606L4.13256 10.2093H4.164L5.66437 7.51563V11.5701L7.38106 11.8248" fill="#7CB1FF"/>
<path d="M1.22256 3.37394V4.1555L8.02656 3.02844V2.03062L1.22256 3.37394Z" fill="#7CB1FF"/>
<path d="M1.22256 12.6169L8.02656 13.9568V12.9623L1.22256 11.8318V12.6169Z" fill="#7CB1FF"/>
<path d="M8.02656 2.03056V3.02844L14.8306 4.1555V3.37394L8.02656 2.03056Z" fill="white"/>
<path d="M11.4667 11.52L13.1467 8.42003L14.8267 5.32007L13.2659 5.00895L11.9165 8.0667L10.4967 4.59569L8.64 4.26666L11.4667 11.52L11.9165 8.0667L8.64 4.26666L11.4667 11.52L14.8267 5.32007L11.9165 8.0667L11.4667 11.52Z" fill="white"/>
<path d="M8.02656 13.9568L14.8306 12.6169V11.8318L8.02662 12.9623V13.9567" fill="white"/>
</svg>
